<?xml version="1.0" encoding="UTF-8"?>
<svg id="Layer_2" data-name="Layer 2" xmlns="http://www.w3.org/2000/svg" xmlns:xlink="http://www.w3.org/1999/xlink" viewBox="0 0 1554.32 133.7">
  <defs>
    <style>
      .cls-1 {
        fill: url(#linear-gradient);
      }
    </style>
    <linearGradient id="linear-gradient" x1="380.15" y1="463.82" x2="1198.18" y2="-354.21" gradientUnits="userSpaceOnUse">
      <stop offset="0" stop-color="#d08582"/>
      <stop offset=".05" stop-color="#c58987"/>
      <stop offset=".32" stop-color="#8f9fa5"/>
      <stop offset=".55" stop-color="#68afba"/>
      <stop offset=".73" stop-color="#4fb9c8"/>
      <stop offset=".85" stop-color="#47bdcd"/>
    </linearGradient>
  </defs>
  <g id="Layer_1-2" data-name="Layer 1">
    <g>
      <path class="cls-1" d="M48.21,131.87v-48.91L0,1.75h31.18l22.01,40.52c2.27,4.08,4.28,8.12,6.03,12.14,1.75,4.02,3.55,8.82,5.41,14.41h-5.85c1.8-5.65,3.55-10.48,5.24-14.5,1.69-4.02,3.61-8.03,5.76-12.05L91.09,1.75h31.09l-47.42,81.22v48.91h-26.55Z"/>
      <path class="cls-1" d="M187.67,133.62c-11.47,0-21.79-2.62-30.96-7.86s-16.42-12.84-21.75-22.79c-5.33-9.96-7.99-21.98-7.99-36.07s2.66-26.21,7.99-36.2c5.33-9.98,12.58-17.6,21.75-22.84,9.17-5.24,19.49-7.86,30.96-7.86s21.86,2.62,31,7.86c9.14,5.24,16.37,12.85,21.7,22.84,5.33,9.99,7.99,22.05,7.99,36.2s-2.66,26.11-7.99,36.07c-5.33,9.96-12.56,17.55-21.7,22.79-9.14,5.24-19.47,7.86-31,7.86ZM187.67,109.95c6.75,0,12.65-1.64,17.68-4.93,5.04-3.29,8.95-8.15,11.75-14.58,2.79-6.43,4.19-14.28,4.19-23.54s-1.4-17.28-4.19-23.71c-2.79-6.43-6.71-11.29-11.75-14.58-5.04-3.29-10.93-4.93-17.68-4.93s-12.58,1.66-17.64,4.98c-5.06,3.32-9,8.2-11.79,14.63-2.79,6.43-4.19,14.31-4.19,23.62s1.4,17.09,4.19,23.49c2.79,6.41,6.72,11.27,11.79,14.58,5.07,3.32,10.95,4.98,17.64,4.98Z"/>
      <path class="cls-1" d="M321.99,133.7c-10.71,0-20.1-1.99-28.16-5.98-8.06-3.99-14.32-9.53-18.78-16.64-4.45-7.1-6.68-15.4-6.68-24.89V1.75h26.64v82.27c0,5.07,1.12,9.56,3.36,13.49,2.24,3.93,5.38,7.02,9.43,9.26,4.05,2.24,8.78,3.36,14.19,3.36s10.23-1.12,14.28-3.36c4.05-2.24,7.19-5.33,9.43-9.26,2.24-3.93,3.36-8.43,3.36-13.49V1.75h26.72v84.45c0,9.49-2.24,17.79-6.72,24.89-4.48,7.1-10.76,12.65-18.82,16.64-8.06,3.99-17.48,5.98-28.25,5.98Z"/>
      <path class="cls-1" d="M399.28,131.87V1.75h50.74c9.9,0,18.31,1.75,25.24,5.24,6.93,3.49,12.21,8.41,15.85,14.76,3.64,6.35,5.46,13.8,5.46,22.36s-1.85,15.94-5.55,22.14c-3.7,6.2-9.05,10.95-16.07,14.23-7.02,3.29-15.53,4.93-25.54,4.93h-34.41v-21.57h30.13c5.47,0,9.96-.74,13.45-2.23s6.11-3.7,7.86-6.64c1.75-2.94,2.62-6.56,2.62-10.87s-.87-8.14-2.62-11.13c-1.75-3-4.38-5.28-7.9-6.86-3.52-1.57-8.02-2.36-13.49-2.36h-19.13v108.12h-26.64ZM471.67,131.87l-31.7-59.21h28.91l32.31,59.21h-29.52Z"/>
      <path class="cls-1" d="M559.09,131.87V1.75h26.64v108.03h56.15v22.09h-82.79Z"/>
      <path class="cls-1" d="M712.27,133.62c-11.47,0-21.79-2.62-30.96-7.86s-16.42-12.84-21.75-22.79c-5.33-9.96-7.99-21.98-7.99-36.07s2.66-26.21,7.99-36.2c5.33-9.98,12.58-17.6,21.75-22.84,9.17-5.24,19.49-7.86,30.96-7.86s21.86,2.62,31,7.86c9.14,5.24,16.37,12.85,21.7,22.84,5.33,9.99,7.99,22.05,7.99,36.2s-2.66,26.11-7.99,36.07c-5.33,9.96-12.56,17.55-21.7,22.79-9.14,5.24-19.47,7.86-31,7.86ZM712.27,109.95c6.75,0,12.65-1.64,17.68-4.93,5.04-3.29,8.95-8.15,11.75-14.58,2.79-6.43,4.19-14.28,4.19-23.54s-1.4-17.28-4.19-23.71c-2.79-6.43-6.71-11.29-11.75-14.58-5.04-3.29-10.93-4.93-17.68-4.93s-12.58,1.66-17.64,4.98c-5.06,3.32-9,8.2-11.79,14.63-2.79,6.43-4.19,14.31-4.19,23.62s1.4,17.09,4.19,23.49c2.79,6.41,6.72,11.27,11.79,14.58,5.07,3.32,10.95,4.98,17.64,4.98Z"/>
      <path class="cls-1" d="M850.6,133.62c-12.17,0-22.84-2.69-32.01-8.08-9.17-5.38-16.33-13.07-21.48-23.06-5.15-9.98-7.73-21.82-7.73-35.5s2.68-26.13,8.03-36.11c5.36-9.98,12.61-17.63,21.75-22.92,9.14-5.3,19.42-7.95,30.83-7.95,7.34,0,14.16,1.06,20.48,3.19,6.32,2.13,11.94,5.14,16.86,9.04,4.92,3.9,8.94,8.51,12.05,13.84s5.14,11.22,6.07,17.68h-27.07c-.93-3.14-2.23-5.95-3.89-8.43-1.66-2.47-3.67-4.58-6.03-6.33s-5.05-3.07-8.08-3.97c-3.03-.9-6.35-1.35-9.96-1.35-6.7,0-12.61,1.67-17.73,5.02-5.12,3.35-9.11,8.22-11.96,14.63-2.85,6.41-4.28,14.21-4.28,23.4s1.41,17.02,4.24,23.45c2.82,6.43,6.8,11.34,11.92,14.71,5.12,3.38,11.18,5.07,18.16,5.07,6.29,0,11.67-1.14,16.16-3.41s7.93-5.52,10.35-9.74c2.42-4.22,3.62-9.15,3.62-14.8l5.59.79h-33.88v-20.26h54.15v16.24c0,11.41-2.42,21.21-7.25,29.39-4.83,8.18-11.47,14.47-19.91,18.86-8.44,4.4-18.11,6.59-28.99,6.59Z"/>
      <path class="cls-1" d="M984.31,133.62c-11.47,0-21.79-2.62-30.96-7.86s-16.42-12.84-21.75-22.79c-5.33-9.96-7.99-21.98-7.99-36.07s2.66-26.21,7.99-36.2c5.33-9.98,12.58-17.6,21.75-22.84,9.17-5.24,19.49-7.86,30.96-7.86s21.86,2.62,31,7.86c9.14,5.24,16.37,12.85,21.7,22.84,5.33,9.99,7.99,22.05,7.99,36.2s-2.66,26.11-7.99,36.07c-5.33,9.96-12.56,17.55-21.7,22.79-9.14,5.24-19.48,7.86-31,7.86ZM984.31,109.95c6.75,0,12.65-1.64,17.68-4.93,5.04-3.29,8.95-8.15,11.75-14.58,2.79-6.43,4.19-14.28,4.19-23.54s-1.4-17.28-4.19-23.71c-2.79-6.43-6.71-11.29-11.75-14.58-5.04-3.29-10.93-4.93-17.68-4.93s-12.58,1.66-17.64,4.98c-5.07,3.32-9,8.2-11.79,14.63-2.79,6.43-4.19,14.31-4.19,23.62s1.4,17.09,4.19,23.49c2.79,6.41,6.72,11.27,11.79,14.58,5.06,3.32,10.94,4.98,17.64,4.98Z"/>
      <path class="cls-1" d="M1107.36,131.87V1.75h26.64v52.57h56.68V1.75h26.72v130.12h-26.72v-55.46h-56.68v55.46h-26.64Z"/>
      <path class="cls-1" d="M1240.97,131.87V1.75h87.07v22.09h-60.43v31.44h55.89v21.75h-55.89v32.75h60.61v22.09h-87.24Z"/>
      <path class="cls-1" d="M1349.62,131.87V1.75h50.74c9.9,0,18.31,1.75,25.24,5.24,6.93,3.49,12.21,8.41,15.85,14.76,3.64,6.35,5.46,13.8,5.46,22.36s-1.85,15.94-5.54,22.14c-3.7,6.2-9.05,10.95-16.07,14.23-7.02,3.29-15.53,4.93-25.54,4.93h-34.41v-21.57h30.13c5.47,0,9.96-.74,13.45-2.23s6.11-3.7,7.86-6.64c1.75-2.94,2.62-6.56,2.62-10.87s-.87-8.14-2.62-11.13c-1.75-3-4.38-5.28-7.9-6.86-3.52-1.57-8.02-2.36-13.49-2.36h-19.12v108.12h-26.64ZM1422.01,131.87l-31.7-59.21h28.91l32.31,59.21h-29.52Z"/>
      <path class="cls-1" d="M1467.08,131.87V1.75h87.07v22.09h-60.43v31.44h55.89v21.75h-55.89v32.75h60.61v22.09h-87.24Z"/>
    </g>
  </g>
</svg>